<svg width="277" height="277" viewBox="0 0 277 277" fill="none" xmlns="http://www.w3.org/2000/svg">
<mask id="mask0_32_183" style="mask-type:alpha" maskUnits="userSpaceOnUse" x="0" y="0" width="277" height="277">
<rect y="67.9884" width="219.871" height="219.407" transform="rotate(-18.0122 0 67.9884)" fill="#C8D446"/>
</mask>
<g mask="url(#mask0_32_183)">
<path d="M91.85 172.706L161.548 150.043L155.895 132.655L86.1963 155.318L91.85 172.706ZM83.3694 146.624L187.917 112.63L182.263 95.2423L77.7156 129.236L83.3694 146.624ZM74.8888 120.543L179.436 86.5483L173.783 69.1605L69.235 103.155L74.8888 120.543ZM79.6158 253.589L28.7321 97.0983C27.1773 92.3167 27.5535 87.6666 29.8606 83.1481C32.1637 78.6373 35.7112 75.6029 40.5029 74.0448L179.9 28.7192C184.691 27.1611 189.348 27.528 193.869 29.8197C198.387 32.1191 201.423 35.6597 202.978 40.4413L236.9 144.768C238.455 149.55 238.082 154.199 235.781 158.716C233.472 163.228 229.921 166.264 225.13 167.822L103.158 207.482L79.6158 253.589ZM83.4008 205.975L90.3161 192.431L219.476 150.434L185.553 46.107L46.1567 91.4326L83.4008 205.975Z" fill="#D4E420"/>
</g>
</svg>
