<svg width="361" height="355" viewBox="0 0 361 355" fill="none" xmlns="http://www.w3.org/2000/svg">
<mask id="mask0_32_189" style="mask-type:alpha" maskUnits="userSpaceOnUse" x="0" y="0" width="361" height="355">
<rect x="127.345" width="269.372" height="254.284" transform="rotate(30.053 127.345 0)" fill="#D9D9D9"/>
</mask>
<g mask="url(#mask0_32_189)">
<path d="M111.35 162.116L227.929 229.567L238.541 211.225L121.962 143.775L111.35 162.116ZM127.268 134.604L243.847 202.055L254.46 183.713L137.881 116.262L127.268 134.604ZM143.187 107.092L259.766 174.542L270.378 156.201L153.799 88.75L143.187 107.092ZM224.34 325.417L206.705 266.25L70.6962 187.557C65.353 184.466 61.8187 180.026 60.0934 174.237C58.3651 168.439 58.9601 163.018 61.8784 157.974L125.551 47.9249C128.47 42.8809 132.873 39.6632 138.761 38.2717C144.639 36.8825 150.25 37.7336 155.593 40.8251L311.032 130.76C316.375 133.851 319.913 138.293 321.644 144.085C323.366 149.88 322.768 155.299 319.85 160.343L224.34 325.417ZM144.981 59.1667L81.3083 169.216L225.332 252.546L230.512 269.926L300.42 149.101L144.981 59.1667Z" fill="#3910B5"/>
</g>
</svg>
