<svg width="39" height="55" viewBox="0 0 39 55" fill="none" xmlns="http://www.w3.org/2000/svg">
<path d="M19.2506 0C8.67056 0 0 8.64468 0 19.1956C0 23.2837 1.30576 27.0832 3.51546 30.2059L16.9011 53.3466C18.7756 55.7957 20.0219 55.3305 21.5806 53.2172L36.3452 28.092C36.6428 27.5523 36.8771 26.9777 37.0809 26.3909C38.0178 24.1077 38.4996 21.6635 38.4992 19.1956C38.4999 8.64468 29.8319 0 19.2506 0ZM19.2506 8.99409C24.9486 8.99409 29.4793 13.5144 29.4793 19.1956C29.4793 24.8767 24.9486 29.3951 19.2506 29.3951C13.5532 29.3951 9.02062 24.8774 9.02062 19.1956C9.02062 13.5144 13.5532 8.99473 19.2506 8.99473V8.99409Z" fill="#3F48CC"/>
</svg>
