<svg width="88" height="84" viewBox="0 0 88 84" fill="none" xmlns="http://www.w3.org/2000/svg">
<path d="M44 1C20.2511 1 1 19.3557 1 42C1 64.6443 20.2511 83 44 83C67.7489 83 87 64.6443 87 42C87 19.3557 67.7489 1 44 1Z" fill="#3F48CC" stroke="white" stroke-width="1.5" stroke-linecap="round" stroke-linejoin="round"/>
<path d="M10.7653 68.0185C10.7653 68.0185 20.35 56.3499 44 56.3499C67.65 56.3499 77.239 68.0185 77.239 68.0185M44 41.9999C47.4213 41.9999 50.7024 40.704 53.1216 38.3973C55.5409 36.0906 56.9 32.9621 56.9 29.6999C56.9 26.4377 55.5409 23.3092 53.1216 21.0025C50.7024 18.6958 47.4213 17.3999 44 17.3999C40.5787 17.3999 37.2975 18.6958 34.8783 21.0025C32.4591 23.3092 31.1 26.4377 31.1 29.6999C31.1 32.9621 32.4591 36.0906 34.8783 38.3973C37.2975 40.704 40.5787 41.9999 44 41.9999Z" fill="white"/>
<path d="M10.7653 68.0185C10.7653 68.0185 20.35 56.3499 44 56.3499C67.65 56.3499 77.239 68.0185 77.239 68.0185M44 41.9999C47.4213 41.9999 50.7024 40.704 53.1216 38.3973C55.5409 36.0906 56.9 32.9621 56.9 29.6999C56.9 26.4377 55.5409 23.3092 53.1216 21.0025C50.7024 18.6958 47.4213 17.3999 44 17.3999C40.5787 17.3999 37.2975 18.6958 34.8783 21.0025C32.4591 23.3092 31.1 26.4377 31.1 29.6999C31.1 32.9621 32.4591 36.0906 34.8783 38.3973C37.2975 40.704 40.5787 41.9999 44 41.9999Z" stroke="white" stroke-width="1.5" stroke-linecap="round" stroke-linejoin="round"/>
</svg>
