<svg width="88" height="84" viewBox="0 0 88 84" fill="none" xmlns="http://www.w3.org/2000/svg">
<path d="M44 1C20.2511 1 1 19.3557 1 42C1 64.6443 20.2511 83 44 83C67.7489 83 87 64.6443 87 42C87 19.3557 67.7489 1 44 1Z" fill="#3F48CC" stroke="white" stroke-width="1.5" stroke-linecap="round" stroke-linejoin="round"/>
<path d="M10.7654 68.0186C10.7654 68.0186 20.3501 56.35 44.0001 56.35C67.6501 56.35 77.2391 68.0186 77.2391 68.0186M44.0001 42C47.4214 42 50.7025 40.7041 53.1218 38.3974C55.541 36.0907 56.9001 32.9622 56.9001 29.7C56.9001 26.4379 55.541 23.3093 53.1218 21.0026C50.7025 18.6959 47.4214 17.4 44.0001 17.4C40.5788 17.4 37.2976 18.6959 34.8784 21.0026C32.4592 23.3093 31.1001 26.4379 31.1001 29.7C31.1001 32.9622 32.4592 36.0907 34.8784 38.3974C37.2976 40.7041 40.5788 42 44.0001 42Z" fill="white"/>
<path d="M10.7654 68.0186C10.7654 68.0186 20.3501 56.35 44.0001 56.35C67.6501 56.35 77.2391 68.0186 77.2391 68.0186M44.0001 42C47.4214 42 50.7025 40.7041 53.1218 38.3974C55.541 36.0907 56.9001 32.9622 56.9001 29.7C56.9001 26.4379 55.541 23.3093 53.1218 21.0026C50.7025 18.6959 47.4214 17.4 44.0001 17.4C40.5788 17.4 37.2976 18.6959 34.8784 21.0026C32.4592 23.3093 31.1001 26.4379 31.1001 29.7C31.1001 32.9622 32.4592 36.0907 34.8784 38.3974C37.2976 40.7041 40.5788 42 44.0001 42Z" stroke="white" stroke-width="1.5" stroke-linecap="round" stroke-linejoin="round"/>
</svg>
