<svg width="88" height="84" viewBox="0 0 88 84" fill="none" xmlns="http://www.w3.org/2000/svg">
<path d="M44 1C20.2511 1 1 19.3557 1 42C1 64.6443 20.2511 83 44 83C67.7489 83 87 64.6443 87 42C87 19.3557 67.7489 1 44 1Z" fill="#3F48CC" stroke="white" stroke-width="1.5" stroke-linecap="round" stroke-linejoin="round"/>
<path d="M10.7653 68.0186C10.7653 68.0186 20.35 56.35 44 56.35C67.65 56.35 77.239 68.0186 77.239 68.0186M44 42C47.4213 42 50.7024 40.7041 53.1216 38.3974C55.5409 36.0907 56.9 32.9622 56.9 29.7C56.9 26.4379 55.5409 23.3093 53.1216 21.0026C50.7024 18.6959 47.4213 17.4 44 17.4C40.5787 17.4 37.2975 18.6959 34.8783 21.0026C32.4591 23.3093 31.1 26.4379 31.1 29.7C31.1 32.9622 32.4591 36.0907 34.8783 38.3974C37.2975 40.7041 40.5787 42 44 42Z" fill="white"/>
<path d="M10.7653 68.0186C10.7653 68.0186 20.35 56.35 44 56.35C67.65 56.35 77.239 68.0186 77.239 68.0186M44 42C47.4213 42 50.7024 40.7041 53.1216 38.3974C55.5409 36.0907 56.9 32.9622 56.9 29.7C56.9 26.4379 55.5409 23.3093 53.1216 21.0026C50.7024 18.6959 47.4213 17.4 44 17.4C40.5787 17.4 37.2975 18.6959 34.8783 21.0026C32.4591 23.3093 31.1 26.4379 31.1 29.7C31.1 32.9622 32.4591 36.0907 34.8783 38.3974C37.2975 40.7041 40.5787 42 44 42Z" stroke="white" stroke-width="1.5" stroke-linecap="round" stroke-linejoin="round"/>
</svg>
