<svg width="88" height="84" viewBox="0 0 88 84" fill="none" xmlns="http://www.w3.org/2000/svg">
<path d="M44 1C20.2511 1 1 19.3557 1 42C1 64.6443 20.2511 83 44 83C67.7489 83 87 64.6443 87 42C87 19.3557 67.7489 1 44 1Z" fill="#3F48CC" stroke="white" stroke-width="1.5" stroke-linecap="round" stroke-linejoin="round"/>
<path d="M10.7654 68.0185C10.7654 68.0185 20.3501 56.3499 44.0001 56.3499C67.6501 56.3499 77.2391 68.0185 77.2391 68.0185M44.0001 41.9999C47.4214 41.9999 50.7025 40.704 53.1218 38.3973C55.541 36.0906 56.9001 32.9621 56.9001 29.6999C56.9001 26.4377 55.541 23.3092 53.1218 21.0025C50.7025 18.6958 47.4214 17.3999 44.0001 17.3999C40.5788 17.3999 37.2976 18.6958 34.8784 21.0025C32.4592 23.3092 31.1001 26.4377 31.1001 29.6999C31.1001 32.9621 32.4592 36.0906 34.8784 38.3973C37.2976 40.704 40.5788 41.9999 44.0001 41.9999Z" fill="white"/>
<path d="M10.7654 68.0185C10.7654 68.0185 20.3501 56.3499 44.0001 56.3499C67.6501 56.3499 77.2391 68.0185 77.2391 68.0185M44.0001 41.9999C47.4214 41.9999 50.7025 40.704 53.1218 38.3973C55.541 36.0906 56.9001 32.9621 56.9001 29.6999C56.9001 26.4377 55.541 23.3092 53.1218 21.0025C50.7025 18.6958 47.4214 17.3999 44.0001 17.3999C40.5788 17.3999 37.2976 18.6958 34.8784 21.0025C32.4592 23.3092 31.1001 26.4377 31.1001 29.6999C31.1001 32.9621 32.4592 36.0906 34.8784 38.3973C37.2976 40.704 40.5788 41.9999 44.0001 41.9999Z" stroke="white" stroke-width="1.5" stroke-linecap="round" stroke-linejoin="round"/>
</svg>
