<svg width="180" height="180" viewBox="0 0 180 180" fill="none" xmlns="http://www.w3.org/2000/svg">
<path fill-rule="evenodd" clip-rule="evenodd" d="M90 157.5C127.279 157.5 157.5 127.279 157.5 90C157.5 52.7212 127.279 22.5 90 22.5C52.7212 22.5 22.5 52.7212 22.5 90C22.5 127.279 52.7212 157.5 90 157.5ZM90 165C131.422 165 165 131.422 165 90C165 48.5775 131.422 15 90 15C48.5775 15 15 48.5775 15 90C15 131.422 48.5775 165 90 165Z" fill="black"/>
<path d="M45 133.613C45 129.739 47.895 126.465 51.75 126.038C80.6813 122.835 99.45 123.124 128.317 126.109C129.759 126.26 131.125 126.828 132.249 127.743C133.373 128.658 134.207 129.881 134.647 131.262C135.088 132.643 135.117 134.122 134.731 135.519C134.345 136.916 133.56 138.17 132.473 139.129C98.4038 168.825 78.9338 168.416 47.4 139.159C45.8625 137.734 45 135.705 45 133.613Z" fill="black"/>
<path fill-rule="evenodd" clip-rule="evenodd" d="M127.931 129.836C99.2925 126.874 80.7938 126.596 52.1588 129.765C51.2162 129.875 50.3472 130.329 49.7183 131.039C49.0893 131.75 48.7446 132.667 48.75 133.616C48.75 134.689 49.1963 135.705 49.95 136.41C65.58 150.908 77.4225 157.459 88.9988 157.5C100.616 157.541 113.096 151.043 130.009 136.305C130.546 135.827 130.933 135.203 131.122 134.509C131.311 133.815 131.295 133.081 131.075 132.396C130.855 131.711 130.441 131.105 129.883 130.651C129.324 130.198 128.647 129.912 127.931 129.836ZM51.3375 122.31C80.5725 119.074 99.615 119.366 128.708 122.378C130.876 122.604 132.932 123.458 134.623 124.834C136.314 126.211 137.566 128.051 138.228 130.128C138.889 132.206 138.93 134.431 138.346 136.532C137.763 138.633 136.579 140.518 134.94 141.956C117.784 156.911 103.496 165.056 88.9763 165C74.415 164.948 60.7575 156.664 44.8538 141.908C43.7151 140.847 42.8074 139.563 42.1873 138.136C41.5672 136.708 41.2482 135.169 41.25 133.613C41.2446 130.817 42.2708 128.117 44.1321 126.031C45.9935 123.945 48.5591 122.622 51.3375 122.31Z" fill="black"/>
<path d="M120 75C120 82.9565 116.839 90.5871 111.213 96.2132C105.587 101.839 97.9565 105 90 105C82.0435 105 74.4129 101.839 68.7868 96.2132C63.1607 90.5871 60 82.9565 60 75C60 67.0435 63.1607 59.4129 68.7868 53.7868C74.4129 48.1607 82.0435 45 90 45C97.9565 45 105.587 48.1607 111.213 53.7868C116.839 59.4129 120 67.0435 120 75Z" fill="black"/>
<path fill-rule="evenodd" clip-rule="evenodd" d="M90 97.5C95.9674 97.5 101.69 95.1295 105.91 90.9099C110.129 86.6903 112.5 80.9674 112.5 75C112.5 69.0326 110.129 63.3097 105.91 59.0901C101.69 54.8705 95.9674 52.5 90 52.5C84.0326 52.5 78.3097 54.8705 74.0901 59.0901C69.8705 63.3097 67.5 69.0326 67.5 75C67.5 80.9674 69.8705 86.6903 74.0901 90.9099C78.3097 95.1295 84.0326 97.5 90 97.5ZM90 105C97.9565 105 105.587 101.839 111.213 96.2132C116.839 90.5871 120 82.9565 120 75C120 67.0435 116.839 59.4129 111.213 53.7868C105.587 48.1607 97.9565 45 90 45C82.0435 45 74.4129 48.1607 68.7868 53.7868C63.1607 59.4129 60 67.0435 60 75C60 82.9565 63.1607 90.5871 68.7868 96.2132C74.4129 101.839 82.0435 105 90 105Z" fill="black"/>
</svg>
