<svg width="38" height="40" viewBox="0 0 38 40" fill="none" xmlns="http://www.w3.org/2000/svg">
<path d="M31.0333 35L21.0583 24.5C20.2667 25.1667 19.3563 25.6944 18.3271 26.0833C17.2979 26.4722 16.2028 26.6667 15.0417 26.6667C12.1653 26.6667 9.73117 25.6183 7.73933 23.5217C5.74644 21.4239 4.75 18.8611 4.75 15.8333C4.75 12.8056 5.74644 10.2428 7.73933 8.145C9.73117 6.04833 12.1653 5 15.0417 5C17.9181 5 20.3527 6.04833 22.3456 8.145C24.3374 10.2428 25.3333 12.8056 25.3333 15.8333C25.3333 17.0556 25.1486 18.2083 24.7792 19.2917C24.4097 20.375 23.9083 21.3333 23.275 22.1667L33.25 32.6667L31.0333 35ZM15.0417 23.3333C17.0208 23.3333 18.7034 22.6044 20.0893 21.1467C21.4742 19.6878 22.1667 17.9167 22.1667 15.8333C22.1667 13.75 21.4742 11.9789 20.0893 10.52C18.7034 9.06222 17.0208 8.33333 15.0417 8.33333C13.0625 8.33333 11.3799 9.06222 9.994 10.52C8.60911 11.9789 7.91667 13.75 7.91667 15.8333C7.91667 17.9167 8.60911 19.6878 9.994 21.1467C11.3799 22.6044 13.0625 23.3333 15.0417 23.3333Z" fill="#B1B1B1"/>
</svg>
