<svg width="72" height="55" viewBox="0 0 72 55" fill="none" xmlns="http://www.w3.org/2000/svg">
<path d="M69.8077 0H2.11538C1.55435 0 1.01629 0.22287 0.619582 0.619582C0.22287 1.01629 0 1.55435 0 2.11538V50.0641C0 51.3732 0.520031 52.6286 1.44569 53.5543C2.37135 54.48 4.62682 55 5.9359 55H67.9872C69.2963 55 69.5517 54.48 70.4774 53.5543C71.403 52.6286 71.9231 51.3732 71.9231 50.0641V2.11538C71.9231 1.55435 71.7002 1.01629 71.3035 0.619582C70.9068 0.22287 70.3687 0 69.8077 0ZM64.3712 4.23077L35.9615 30.2712L7.55192 4.23077H64.3712ZM66.9872 50.7692H4.9359C4.74889 50.7692 4.56953 50.6949 4.4373 50.5627C4.30506 50.4305 4.23077 50.2511 4.23077 50.0641V6.92436L34.5513 34.6994C34.9412 35.0561 35.4506 35.254 35.9792 35.254C36.5077 35.254 37.0171 35.0561 37.4071 34.6994L67.6923 6.92436V50.0641C67.6923 50.2511 67.618 50.4305 67.4858 50.5627C67.3535 50.6949 67.1742 50.7692 66.9872 50.7692Z" fill="#3F48CC"/>
</svg>
