<svg width="55" height="55" viewBox="0 0 55 55" fill="none" xmlns="http://www.w3.org/2000/svg">
<path d="M27.5 19.25C25.312 19.25 23.2135 20.1192 21.6664 21.6664C20.1192 23.2135 19.25 25.312 19.25 27.5C19.25 29.688 20.1192 31.7865 21.6664 33.3336C23.2135 34.8808 25.312 35.75 27.5 35.75C29.688 35.75 31.7865 34.8808 33.3336 33.3336C34.8808 31.7865 35.75 29.688 35.75 27.5C35.75 25.312 34.8808 23.2135 33.3336 21.6664C31.7865 20.1192 29.688 19.25 27.5 19.25ZM27.5 13.75C31.1467 13.75 34.6441 15.1987 37.2227 17.7773C39.8013 20.3559 41.25 23.8533 41.25 27.5C41.25 31.1467 39.8013 34.6441 37.2227 37.2227C34.6441 39.8013 31.1467 41.25 27.5 41.25C23.8533 41.25 20.3559 39.8013 17.7773 37.2227C15.1987 34.6441 13.75 31.1467 13.75 27.5C13.75 23.8533 15.1987 20.3559 17.7773 17.7773C20.3559 15.1987 23.8533 13.75 27.5 13.75ZM45.375 13.0625C45.375 13.9742 45.0128 14.8485 44.3682 15.4932C43.7235 16.1378 42.8492 16.5 41.9375 16.5C41.0258 16.5 40.1515 16.1378 39.5068 15.4932C38.8622 14.8485 38.5 13.9742 38.5 13.0625C38.5 12.1508 38.8622 11.2765 39.5068 10.6318C40.1515 9.98716 41.0258 9.625 41.9375 9.625C42.8492 9.625 43.7235 9.98716 44.3682 10.6318C45.0128 11.2765 45.375 12.1508 45.375 13.0625ZM27.5 5.5C20.6965 5.5 19.5855 5.51925 16.4203 5.6595C14.2643 5.76125 12.8177 6.05 11.4757 6.5725C10.3527 6.98483 9.33739 7.64572 8.50575 8.50575C7.64502 9.33735 6.98322 10.3526 6.56975 11.4757C6.04725 12.8232 5.7585 14.267 5.6595 16.4203C5.5165 19.4563 5.5 20.5177 5.5 27.5C5.5 34.3035 5.51925 35.4145 5.6595 38.5797C5.76125 40.733 6.05 42.1823 6.56975 43.5215C7.03725 44.7178 7.58725 45.5785 8.50025 46.4915C9.427 47.4155 10.2877 47.9682 11.4703 48.4247C12.8287 48.95 14.2753 49.2415 16.4203 49.3405C19.4563 49.4835 20.5177 49.5 27.5 49.5C34.3035 49.5 35.4145 49.4807 38.5797 49.3405C40.7302 49.2387 42.1795 48.95 43.5215 48.4303C44.6429 48.0159 45.6575 47.3563 46.4915 46.4998C47.4183 45.573 47.971 44.7123 48.4275 43.5298C48.95 42.174 49.2415 40.7247 49.3405 38.5797C49.4835 35.5437 49.5 34.4823 49.5 27.5C49.5 20.6965 49.4807 19.5855 49.3405 16.4203C49.2387 14.2698 48.95 12.8177 48.4275 11.4757C48.0131 10.3538 47.3525 9.33889 46.4942 8.50575C45.663 7.64458 44.6477 6.98271 43.5242 6.56975C42.1767 6.04725 40.7302 5.7585 38.5797 5.6595C35.5437 5.5165 34.4823 5.5 27.5 5.5ZM27.5 0C34.9718 0 35.904 0.0274998 38.8355 0.165C41.7642 0.3025 43.758 0.76175 45.5125 1.44375C47.3275 2.14225 48.8565 3.08825 50.3855 4.6145C51.7839 5.98921 52.8659 7.65212 53.5563 9.4875C54.2355 11.2392 54.6975 13.2357 54.835 16.1645C54.9643 19.096 55 20.0282 55 27.5C55 34.9718 54.9725 35.904 54.835 38.8355C54.6975 41.7642 54.2355 43.758 53.5563 45.5125C52.8679 47.3489 51.7856 49.0122 50.3855 50.3855C49.0104 51.7834 47.3476 52.8653 45.5125 53.5563C43.7607 54.2355 41.7642 54.6975 38.8355 54.835C35.904 54.9643 34.9718 55 27.5 55C20.0282 55 19.096 54.9725 16.1645 54.835C13.2357 54.6975 11.242 54.2355 9.4875 53.5563C7.6514 52.8673 5.9882 51.7851 4.6145 50.3855C3.21587 49.011 2.13381 47.348 1.44375 45.5125C0.76175 43.7607 0.3025 41.7642 0.165 38.8355C0.0357498 35.904 0 34.9718 0 27.5C0 20.0282 0.0274998 19.096 0.165 16.1645C0.3025 13.233 0.76175 11.242 1.44375 9.4875C2.1319 7.65099 3.21421 5.98763 4.6145 4.6145C5.9886 3.21539 7.65168 2.13326 9.4875 1.44375C11.242 0.76175 13.233 0.3025 16.1645 0.165C19.096 0.0357498 20.0282 0 27.5 0Z" fill="white"/>
</svg>
