<svg width="55" height="55" viewBox="0 0 55 55" fill="none" xmlns="http://www.w3.org/2000/svg">
<path d="M11.0611 23.8028C15.4611 32.45 22.55 39.5083 31.1972 43.9389L37.9194 37.2167C38.7444 36.3917 39.9667 36.1167 41.0361 36.4833C44.4583 37.6139 48.1556 38.225 51.9444 38.225C53.625 38.225 55 39.6 55 41.2806V51.9444C55 53.625 53.625 55 51.9444 55C23.2528 55 0 31.7472 0 3.05556C0 1.375 1.375 0 3.05556 0H13.75C15.4306 0 16.8056 1.375 16.8056 3.05556C16.8056 6.875 17.4167 10.5417 18.5472 13.9639C18.8833 15.0333 18.6389 16.225 17.7833 17.0806L11.0611 23.8028Z" fill="#3F48CC"/>
</svg>
