<svg width="49" height="50" viewBox="0 0 49 50" fill="none" xmlns="http://www.w3.org/2000/svg">
<path d="M14.5 49.1667C13.1708 49.1667 12.0334 48.6857 11.0877 47.7236C10.1403 46.76 9.66667 45.6021 9.66667 44.25C9.66667 42.8979 10.1403 41.74 11.0877 40.7764C12.0334 39.8143 13.1708 39.3333 14.5 39.3333C15.8292 39.3333 16.9666 39.8143 17.9123 40.7764C18.8597 41.74 19.3333 42.8979 19.3333 44.25C19.3333 45.6021 18.8597 46.76 17.9123 47.7236C16.9666 48.6857 15.8292 49.1667 14.5 49.1667ZM38.6667 49.1667C37.3375 49.1667 36.2001 48.6857 35.2543 47.7236C34.307 46.76 33.8333 45.6021 33.8333 44.25C33.8333 42.8979 34.307 41.74 35.2543 40.7764C36.2001 39.8143 37.3375 39.3333 38.6667 39.3333C39.9958 39.3333 41.1341 39.8143 42.0814 40.7764C43.0271 41.74 43.5 42.8979 43.5 44.25C43.5 45.6021 43.0271 46.76 42.0814 47.7236C41.1341 48.6857 39.9958 49.1667 38.6667 49.1667ZM12.4458 9.83333L18.2458 22.125H35.1625L41.8083 9.83333H12.4458ZM10.15 4.91667H45.7958C46.7222 4.91667 47.4271 5.33622 47.9104 6.17533C48.3938 7.01608 48.4139 7.86667 47.9708 8.72708L39.3917 24.4604C38.9486 25.2799 38.3541 25.9149 37.6082 26.3656C36.8638 26.8163 36.0486 27.0417 35.1625 27.0417H17.1583L14.5 31.9583H43.5V36.875H14.5C12.6875 36.875 11.3181 36.0654 10.3917 34.4462C9.46528 32.8286 9.425 31.2208 10.2708 29.6229L13.5333 23.6L4.83333 4.91667H0V0H7.85417L10.15 4.91667Z" fill="black"/>
</svg>
